<svg xmlns="http://www.w3.org/2000/svg" width="34" height="34" viewBox="0 0 34 34">
    <g fill="#FED173" fill-rule="nonzero">
        <rect width="34" height="34" opacity=".18" rx="5"/>
        <path d="M28.045 17.14c.314.289.479.607.494.954.015.347-.105.636-.359.867a1.377 1.377 0 0 1-.987.347c-.374-.014-.673-.116-.897-.304a19.25 19.25 0 0 1-.684-.607 1439.313 1439.313 0 0 1-3.073-2.808 719.19 719.19 0 0 0-1.716-1.572c-.538-.492-1.002-.918-1.39-1.28a24.672 24.672 0 0 0-.741-.672c-.479-.419-.95-.621-1.413-.607-.464.015-.92.217-1.368.607-.15.13-.43.38-.842.748-.41.37-.886.8-1.424 1.29a222.36 222.36 0 0 1-1.705 1.54c-.598.535-1.151 1.034-1.66 1.497-.508.462-.945.856-1.312 1.181a21.13 21.13 0 0 1-.661.575c-.225.174-.524.268-.898.282a1.346 1.346 0 0 1-.964-.325c-.3-.26-.441-.575-.426-.944.015-.368.142-.661.381-.878.09-.087.366-.34.83-.759a5572.825 5572.825 0 0 1 3.735-3.361c.74-.665 1.428-1.287 2.063-1.865.636-.578 1.182-1.073 1.638-1.485.456-.412.721-.654.796-.727.568-.535 1.181-.806 1.84-.813.657-.007 1.218.206 1.682.64.09.072.276.242.56.51.284.267.632.592 1.043.975.412.383.871.813 1.38 1.29.508.478 1.024.958 1.548 1.443.523.484 1.035.965 1.536 1.442.5.477.96.907 1.38 1.29.418.383.77.712 1.054.986l.56.543zm-12.134-3.145c.373-.332.822-.51 1.345-.531.524-.022.995.155 1.414.531.044.044.179.167.403.369l.853.759c.329.304.699.643 1.11 1.02.411.375.834.75 1.267 1.127 1.002.896 2.124 1.9 3.365 3.014v4.12c0 .318-.124.6-.37.846-.247.245-.58.376-.998.39h-4.24v-3.361c0-.477-.232-.716-.695-.716H15.08c-.255 0-.43.073-.527.217a.873.873 0 0 0-.146.499c0 .087-.004.307-.011.661a54.12 54.12 0 0 0-.012 1.139v1.561h-4.104c-.434 0-.778-.094-1.032-.282-.254-.188-.382-.455-.382-.802V20.24c1.227-1.085 2.34-2.068 3.343-2.95.418-.375.837-.748 1.256-1.116l1.144-1.009c.344-.303.631-.56.863-.77.232-.21.378-.343.438-.4z"/>
    </g>
</svg>
