<?xml version="1.0" encoding="UTF-8"?>
<svg width="40px" height="40px" viewBox="0 0 40 40" version="1.1" xmlns="http://www.w3.org/2000/svg">
    <!-- Generator: Sketch 50.2 (55047) - http://www.bohemiancoding.com/sketch -->
    <title>default-user-avatar</title>
    <desc>Created with Sketch.</desc>
    <defs></defs>
    <g id="Page-1" stroke="none" stroke-width="1" fill="none" fill-rule="evenodd">
        <rect id="Rectangle-5" fill="#FFFFFF" x="0" y="0" width="40" height="40"></rect>
        <rect id="Rectangle-5" fill="#8E8EA3" opacity="0.200000003" x="0" y="0" width="40" height="40"></rect>
        <path d="M21.6988605,23.2722449 C23.0415198,22.1779594 23.7321694,21.1481933 24.138316,19.8603491 C24.4305469,19.7621549 24.7021699,19.4919085 24.8369797,19.1178083 C25.0204469,18.6118392 24.8913615,18.0951168 24.5547665,17.8823155 C24.5968408,17.5741497 24.6357668,17.2524009 24.6721168,16.9114094 C25.0009839,13.8122071 23.6932434,12 20.6907927,12 C20.4701168,12 20.2397095,12.0099043 20.0004293,12.02943 C19.0819484,12.1055517 18.4808859,12.6112379 18.4808859,12.6112379 C18.2499061,12.5611503 18.03152,12.53738 17.8257276,12.53738 C15.8691258,12.537097 15.0579775,14.682938 15.3270246,16.9119754 C15.3679541,17.2501371 15.4097422,17.570471 15.454965,17.8775048 C15.110642,18.0843636 14.9775496,18.6070285 15.1621617,19.1178083 C15.3012647,19.5009639 15.5820468,19.7743231 15.8817195,19.8665747 C16.2852901,21.1515891 16.9610562,22.1822041 18.3005671,23.2722449 C14.9028461,24.112131 12,25.3725261 12,26.6320723 L12,26.7724306 C12,27.4504519 15.5823331,28 20.0001431,28 C24.4176669,28 27.9991413,27.4510178 27.9991413,26.7724306 L27.9991413,26.6320723 L28,26.6320723 C28,25.3719602 25.0971539,24.111848 21.6988605,23.2722449 Z"
              id="Shape" fill="#8E8EA3" fill-rule="nonzero"></path>
    </g>
</svg>