<svg xmlns="http://www.w3.org/2000/svg" width="22" height="22" viewBox="0 0 22 22">
    <g fill="#FED173" fill-rule="nonzero">
        <path d="M19.003 15.892H16.56a.692.692 0 0 0-.692.693v2.441a.23.23 0 0 0 .395.164l2.903-2.905a.23.23 0 0 0-.162-.393z"/>
        <path d="M18.867 2H3.098a.923.923 0 0 0-.923.923v15.97c0 .51.414.922.923.922h10.923a.462.462 0 0 0 .461-.461v-2.77c0-1.146.93-2.076 2.077-2.076h2.77a.462.462 0 0 0 .461-.462V2.923A.923.923 0 0 0 18.867 2zm-6.713 11.656H5.385a.692.692 0 1 1 0-1.384h6.769a.692.692 0 0 1 0 1.384zm4.615-3.461H5.385a.692.692 0 1 1 0-1.385H16.77a.692.692 0 0 1 0 1.385zm0-3.462H5.385a.692.692 0 1 1 0-1.385H16.77a.692.692 0 0 1 0 1.385z"/>
    </g>
</svg>
