<?xml version="1.0" encoding="UTF-8"?>
<svg width="75px" height="76px" viewBox="0 0 75 76" version="1.1" xmlns="http://www.w3.org/2000/svg">
    <!-- Generator: Sketch 50.2 (55047) - http://www.bohemiancoding.com/sketch -->
    <title>image</title>
    <desc>Created with Sketch.</desc>
    <defs></defs>
    <g id="Incident-Reports-v2---Mobile" stroke="none" stroke-width="1" fill="none" fill-rule="evenodd">
        <g id="No-images-v2" transform="translate(-151.000000, -368.000000)" fill-rule="nonzero">
            <g id="Group-4" transform="translate(77.000000, 368.000000)">
                <g id="image" transform="translate(74.000000, 0.000000)">
                    <path d="M67.4887734,7.50617284 L60.0043659,7.50617284 L60.0043659,1.25102881 C60.0043659,0.559209877 59.4455301,0 58.7569647,0 L1.37650728,0 C0.687941788,0 0.129106029,0.559209877 0.129106029,1.25102881 L0.129106029,50.0411523 C0.129106029,50.7329712 0.687941788,51.2921811 1.37650728,51.2921811 L6.36611227,51.2921811 L6.36611227,58.7983539 C6.36611227,59.4901728 6.92494802,60.0493827 7.61351351,60.0493827 L67.4887734,60.0493827 C68.1773389,60.0493827 68.7361746,59.4901728 68.7361746,58.7983539 L68.7361746,8.75720165 C68.7361746,8.06538272 68.1773389,7.50617284 67.4887734,7.50617284 Z M2.62390852,48.7901235 L2.62390852,2.50205761 L57.5095634,2.50205761 L57.5095634,48.7901235 L2.62390852,48.7901235 Z M66.2413721,57.5473251 L8.86091476,57.5473251 L8.86091476,51.2921811 L58.7569647,51.2921811 C59.4455301,51.2921811 60.0043659,50.7329712 60.0043659,50.0411523 L60.0043659,10.0082305 L66.2413721,10.0082305 L66.2413721,57.5473251 Z"
                          id="Shape" fill="#A4ADBA"></path>
                    <path d="M35.9382536,14.1278683 C35.4505198,13.638716 34.6621622,13.638716 34.1744283,14.1278683 L22.5823285,25.753679 L19.0983368,22.2595556 C18.6106029,21.7704033 17.8222453,21.7704033 17.3345114,22.2595556 L4.23679834,35.395358 L6.0006237,37.1643128 L18.2164241,24.9129877 L30.4322245,37.1643128 L32.1960499,35.395358 L24.3461538,27.5226337 L35.056341,16.7813004 L54.1328482,35.913284 L55.8966736,34.1443292 L35.9382536,14.1278683 Z"
                          id="Shape" fill="#37D08B"></path>
                    <path d="M12.6031185,6.25514403 C9.16403326,6.25514403 6.36611227,9.06120165 6.36611227,12.5102881 C6.36611227,15.9593745 9.16403326,18.7654321 12.6031185,18.7654321 C16.0422037,18.7654321 18.8401247,15.9593745 18.8401247,12.5102881 C18.8401247,9.06120165 16.0422037,6.25514403 12.6031185,6.25514403 Z M12.6031185,16.2633745 C10.5399168,16.2633745 8.86091476,14.5794897 8.86091476,12.5102881 C8.86091476,10.4410864 10.5399168,8.75720165 12.6031185,8.75720165 C14.6663202,8.75720165 16.3453222,10.4410864 16.3453222,12.5102881 C16.3453222,14.5794897 14.6663202,16.2633745 12.6031185,16.2633745 Z"
                          id="Shape" fill="#FED173"></path>
                    <path d="M51.1141372,42.8089547 C50.4068607,43.3769218 49.8954262,43.7860082 48.7727651,43.7860082 C47.6488565,43.7860082 47.137422,43.3756708 46.4301455,42.8089547 C45.5819127,42.1296461 44.5278586,41.2839506 42.5295218,41.2839506 C40.5324324,41.2839506 39.4783784,42.1296461 38.6313929,42.8089547 C37.897921,43.3969383 37.4139293,43.7860082 36.2912682,43.7860082 C35.1711019,43.7860082 34.6871102,43.3969383 33.9536383,42.8102058 C33.1079002,42.1296461 32.0550936,41.2839506 30.0592516,41.2839506 C28.0621622,41.2839506 27.0081081,42.1296461 26.1611227,42.8089547 C25.4276507,43.3969383 24.943659,43.7860082 23.8222453,43.7860082 C22.702079,43.7860082 22.2168399,43.3969383 21.4846154,42.8102058 C20.6376299,42.1296461 19.5848233,41.2839506 17.5877339,41.2839506 C15.5906445,41.2839506 14.5378378,42.1296461 13.6908524,42.8102058 C12.9586279,43.3981893 12.4733888,43.7860082 11.3532225,43.7860082 C10.2330561,43.7860082 9.74781705,43.3969383 9.01559252,42.8102058 C8.16860707,42.1296461 7.11580042,41.2839506 5.11871102,41.2839506 L5.11871102,43.7860082 C6.23887734,43.7860082 6.72411642,44.1750782 7.45634096,44.7618107 C8.3033264,45.4423704 9.35613306,46.2880658 11.3532225,46.2880658 C13.3503119,46.2880658 14.4031185,45.4423704 15.250104,44.7618107 C15.9823285,44.1738272 16.4675676,43.7860082 17.5877339,43.7860082 C18.7079002,43.7860082 19.1931393,44.1750782 19.9253638,44.7618107 C20.7723493,45.4423704 21.8251559,46.2880658 23.8222453,46.2880658 C25.8193347,46.2880658 26.8721414,45.4423704 27.7191268,44.7630617 C28.4525988,44.1750782 28.9365904,43.7860082 30.0592516,43.7860082 C31.1794179,43.7860082 31.6634096,44.1750782 32.3956341,44.7618107 C33.2413721,45.4423704 34.2954262,46.2880658 36.2912682,46.2880658 C38.2883576,46.2880658 39.3424116,45.4423704 40.1893971,44.7630617 C40.922869,44.1750782 41.4081081,43.7860082 42.5295218,43.7860082 C43.652183,43.7860082 44.1636175,44.1950947 44.870894,44.7630617 C45.7191268,45.4423704 46.7744283,46.2880658 48.7727651,46.2880658 C50.7711019,46.2880658 51.8251559,45.4423704 52.6721414,44.7630617 C53.3794179,44.1963457 53.8908524,43.7860082 55.0147609,43.7860082 L55.0147609,41.2839506 C53.0164241,41.2839506 51.9623701,42.1296461 51.1141372,42.8089547 Z"
                          id="Shape" fill="#A4ADBA"></path>
                    <path d="M22.2168399,62.9179918 C21.9074844,62.6077366 21.4596674,62.4788807 21.0318087,62.5889712 L11.0525988,65.0910288 C10.6160083,65.1998683 10.272973,65.535144 10.1532225,65.9705021 C10.0334719,66.4046091 10.1557173,66.8699918 10.4738046,67.1890041 L13.3340956,70.0576132 L9.22640333,74.177251 L10.9902287,75.9462058 L15.097921,71.8265679 L17.9582121,74.695177 C18.1952183,74.9328724 18.5133056,75.0617284 18.8401247,75.0617284 C18.9511435,75.0617284 19.0634096,75.046716 19.1731809,75.0166914 C19.6060291,74.8953416 19.94158,74.5513086 20.050104,74.1134486 L22.5449064,64.1052181 C22.6509356,63.6786173 22.5261954,63.2282469 22.2168399,62.9179918 Z M18.1640333,71.3636872 L13.7956341,66.9825844 L19.6197505,65.5213827 L18.1640333,71.3636872 Z"
                          id="Shape" fill="#A4ADBA"></path>
                    <rect id="Rectangle-path" fill="#A4ADBA" x="32.5615385" y="72.5596708" width="2.49480249"
                          height="2.50205761"></rect>
                    <rect id="Rectangle-path" fill="#A4ADBA" x="37.5511435" y="72.5596708" width="2.49480249"
                          height="2.50205761"></rect>
                    <rect id="Rectangle-path" fill="#A4ADBA" x="42.5407484" y="72.5596708" width="2.49480249"
                          height="2.50205761"></rect>
                    <rect id="Rectangle-path" fill="#A4ADBA" x="47.5303534" y="72.5596708" width="2.49480249"
                          height="2.50205761"></rect>
                    <rect id="Rectangle-path" fill="#A4ADBA" x="52.5199584" y="72.5596708" width="2.49480249"
                          height="2.50205761"></rect>
                    <rect id="Rectangle-path" fill="#A4ADBA" x="57.5095634" y="72.5596708" width="2.49480249"
                          height="2.50205761"></rect>
                    <rect id="Rectangle-path" fill="#A4ADBA" x="62.4991684" y="72.5596708" width="2.49480249"
                          height="2.50205761"></rect>
                    <rect id="Rectangle-path" fill="#A4ADBA" x="67.4887734" y="72.5596708" width="2.49480249"
                          height="2.50205761"></rect>
                    <rect id="Rectangle-path" fill="#A4ADBA" x="72.4783784" y="72.5596708" width="2.49480249"
                          height="2.50205761"></rect>
                    <rect id="Rectangle-path" fill="#A4ADBA" x="72.4783784" y="67.5555556" width="2.49480249"
                          height="2.50205761"></rect>
                    <rect id="Rectangle-path" fill="#A4ADBA" x="72.4783784" y="62.5514403" width="2.49480249"
                          height="2.50205761"></rect>
                    <rect id="Rectangle-path" fill="#A4ADBA" x="72.4783784" y="57.5473251" width="2.49480249"
                          height="2.50205761"></rect>
                    <rect id="Rectangle-path" fill="#A4ADBA" x="72.4783784" y="52.5432099" width="2.49480249"
                          height="2.50205761"></rect>
                    <rect id="Rectangle-path" fill="#A4ADBA" x="72.4783784" y="47.5390947" width="2.49480249"
                          height="2.50205761"></rect>
                    <rect id="Rectangle-path" fill="#A4ADBA" x="72.4783784" y="42.5349794" width="2.49480249"
                          height="2.50205761"></rect>
                    <rect id="Rectangle-path" fill="#A4ADBA" x="72.4783784" y="37.5308642" width="2.49480249"
                          height="2.50205761"></rect>
                    <rect id="Rectangle-path" fill="#A4ADBA" x="72.4783784" y="32.526749" width="2.49480249"
                          height="2.50205761"></rect>
                </g>
            </g>
        </g>
    </g>
</svg>