<svg xmlns="http://www.w3.org/2000/svg" width="22" height="22" viewBox="0 0 22 22">
    <g fill="#0080FF" fill-rule="nonzero" transform="translate(0 4)">
        <ellipse cx="17.303" cy="3.423" rx="2.635" ry="2.666"/>
        <path d="M18.157 7.501h-1.708c-.071 0-.141.007-.212.01a5.656 5.656 0 0 1 1.376 3.702v.836c0 .583-.088 1.144-.25 1.673h4.271c.232-.5.366-1.054.366-1.64v-.692C22 9.25 20.27 7.5 18.157 7.5z"/>
        <ellipse cx="4.697" cy="3.423" rx="2.635" ry="2.666"/>
        <path d="M4.637 13.722a5.685 5.685 0 0 1-.25-1.673v-.836c0-1.417.522-2.71 1.376-3.701-.07-.004-.14-.011-.212-.011H3.843C1.73 7.5 0 9.25 0 11.39v.691c0 .587.134 1.141.366 1.641h4.271z"/>
        <ellipse cx="11" cy="2.796" rx="2.635" ry="2.666"/>
        <path d="M12.033 6.508H9.967c-2.558 0-4.65 2.117-4.65 4.705v.836c0 .59.113 1.152.311 1.673h10.744c.198-.52.311-1.084.311-1.673v-.836c0-2.588-2.092-4.705-4.65-4.705z"/>
    </g>
</svg>
