<?xml version="1.0" encoding="UTF-8"?>
<svg width="32px" height="32px" viewBox="0 0 32 32" version="1.1" xmlns="http://www.w3.org/2000/svg">
    <!-- Generator: Sketch 50.2 (55047) - http://www.bohemiancoding.com/sketch -->
    <title>noun_1067182_cc</title>
    <desc>Created with Sketch.</desc>
    <defs></defs>
    <g id="Page-1" stroke="none" stroke-width="1" fill="none" fill-rule="evenodd">
        <g id="📈---Report---Missing-person" transform="translate(-20.000000, -1474.000000)" fill="#8E8EA3"
           fill-rule="nonzero">
            <g id="Group-16" transform="translate(0.000000, 1454.000000)">
                <g id="Group-17" transform="translate(20.000000, 20.000000)">
                    <g id="noun_1067182_cc">
                        <path d="M15.3333333,23.36 L19.56,23.36 C20.7124254,23.3779722 21.674024,22.484009 21.74,21.3333333 C21.7580559,20.7675724 21.5458571,20.2186831 21.151932,19.8121926 C20.7580069,19.4057022 20.2160489,19.1763786 19.65,19.1766667 L14.0766667,19.1766667 C10.8532448,17.8818288 7.1687886,18.6229099 4.69666667,21.0633333 L0.226666667,25.4666667 C0.211986129,25.4805211 0.203665563,25.4998143 0.203665563,25.52 C0.203665563,25.5401857 0.211986129,25.5594789 0.226666667,25.5733333 L8.05,32 L9.84,30.21 L20.1166667,30.21 C21.6078053,30.2037919 23.0235492,29.5536435 24,28.4266667 L30.5833333,20.76 C31.297906,19.8554302 31.1804964,18.5500174 30.3159823,17.7874717 C29.4514682,17.0249259 28.1416109,17.071416 27.3333333,17.8933333 L22.0666667,23.9166667 C21.599444,24.442225 20.9298796,24.7430438 20.2266667,24.7433333 L15.37,24.7433333 C15.0041631,24.7515437 14.6908971,24.4828247 14.6433333,24.12 C14.6245392,23.9254463 14.6887381,23.7319975 14.8201235,23.5872831 C14.9515088,23.4425688 15.137874,23.360034 15.3333333,23.36 Z"
                              id="Shape"></path>
                        <path d="M22.4066667,0 L12.2433333,0 C10.6159343,1.48029737e-16 9.29666667,1.3192676 9.29666667,2.94666667 L9.29666667,13.1266667 C9.29666667,13.9081713 9.60711816,14.6576675 10.1597254,15.2102746 C10.7123325,15.7628818 11.4618287,16.0733333 12.2433333,16.0733333 L22.4066667,16.0733333 C24.0340657,16.0733333 25.3533333,14.7540657 25.3533333,13.1266667 L25.3533333,2.96 C25.35688,2.17618779 25.047995,1.42326169 24.4950029,0.867767385 C23.9420108,0.312273082 23.1904869,-8.02424462e-06 22.4066667,0 Z M21.87,8.71666667 C21.87,9.13824403 21.528244,9.48 21.1066667,9.48 L18.7733333,9.48 L18.7733333,11.8133333 C18.7769589,12.0198282 18.6967573,12.2189798 18.5510353,12.3653299 C18.4053133,12.51168 18.2065085,12.5927374 18,12.59 L16.6666667,12.59 C16.2450893,12.59 15.9033333,12.248244 15.9033333,11.8266667 L15.9033333,9.49333333 L13.57,9.49333333 C13.1484226,9.49333333 12.8066667,9.15157736 12.8066667,8.73 L12.8066667,7.39666667 C12.8066667,6.97508931 13.1484226,6.63333333 13.57,6.63333333 L15.9033333,6.63333333 L15.9033333,4.3 C15.8932956,4.09127647 15.9692645,3.88756355 16.1135196,3.73637914 C16.2577747,3.58519473 16.4577021,3.49975878 16.6666667,3.5 L18,3.5 C18.4215774,3.5 18.7633333,3.84175597 18.7633333,4.26333333 L18.7633333,6.59666667 L21.0966667,6.59666667 C21.518244,6.59666667 21.86,6.93842264 21.86,7.36 L21.87,8.71666667 Z"
                              id="Shape"></path>
                    </g>
                </g>
            </g>
        </g>
    </g>
</svg>