<?xml version="1.0" encoding="UTF-8"?>
<svg width="8px" height="8px" viewBox="0 0 8 8" version="1.1" xmlns="http://www.w3.org/2000/svg">
    <!-- Generator: Sketch 50.2 (55047) - http://www.bohemiancoding.com/sketch -->
    <title>Path</title>
    <desc>Created with Sketch.</desc>
    <defs></defs>
    <g id="Page-1" stroke="none" stroke-width="1" fill="none" fill-rule="evenodd">
        <path d="M7.86785714,6.76821668 C7.92142857,6.82214765 7.95,6.89405561 7.95,6.96955896 C7.95,7.04506232 7.92142857,7.12056568 7.86785714,7.17090125 L7.09642857,7.95110259 C7.03928571,8.00862895 6.96785714,8.03379674 6.89642857,8.03379674 C6.825,8.03379674 6.75,8.00503356 6.69642857,7.95110259 L4,5.23298178 L1.30714286,7.95469799 C1.25357143,8.01222435 1.17857143,8.03739214 1.10714286,8.03739214 C1.03571429,8.03739214 0.960714286,8.00862895 0.907142857,7.95469799 L0.135714286,7.17449664 C0.0821428571,7.12056568 0.0535714286,7.04865772 0.0535714286,6.97315436 C0.0535714286,6.89765101 0.0821428571,6.82214765 0.135714286,6.77181208 L2.83928571,4.03930968 L0.128571429,1.34276127 C0.0178571429,1.23130393 0.0178571429,1.04793864 0.128571429,0.936481304 L0.9,0.156279962 C0.953571429,0.102348993 1.025,0.0735858102 1.1,0.0735858102 C1.175,0.0735858102 1.24642857,0.102348993 1.3,0.156279962 L4.00357143,2.84204219 L6.70714286,0.156279962 C6.76071429,0.102348993 6.83214286,0.0735858102 6.90714286,0.0735858102 C6.98214286,0.0735858102 7.05357143,0.102348993 7.10714286,0.156279962 L7.87857143,0.936481304 C7.98928571,1.04793864 7.98928571,1.23130393 7.87857143,1.34276127 L5.16785714,4.03930968 L7.86785714,6.76821668 Z"
              id="Path" fill="#002748"></path>
    </g>
</svg>
