<?xml version="1.0" encoding="UTF-8"?>
<svg width="48px" height="40px" viewBox="0 0 48 40" version="1.1" xmlns="http://www.w3.org/2000/svg">
    <!-- Generator: Sketch 50.2 (55047) - http://www.bohemiancoding.com/sketch -->
    <title>Shape</title>
    <desc>Created with Sketch.</desc>
    <defs>
        <linearGradient x1="-2.22044605e-14%" y1="1.14491749e-14%" x2="98.1236452%" y2="95.8925527%"
                        id="linearGradient-1">
            <stop stop-color="#30C2A6" offset="0%"></stop>
            <stop stop-color="#37D08B" offset="100%"></stop>
        </linearGradient>
    </defs>
    <g id="Page-1" stroke="none" stroke-width="1" fill="none" fill-rule="evenodd">
        <g id="📈---Report---Missing-person" transform="translate(-164.000000, -1246.000000)"
           fill="url(#linearGradient-1)" fill-rule="nonzero">
            <g id="Group-16" transform="translate(0.000000, 1154.000000)">
                <g id="Group-8" transform="translate(20.000000, 68.000000)">
                    <g id="noun_1142504_cc" transform="translate(144.000000, 24.000000)">
                        <path d="M37.5736842,5.73157895 C37.9980714,5.73157895 38.3421053,5.38754512 38.3421053,4.96315789 L38.3421053,1.07894737 C38.3421053,0.65456014 38.6861391,0.310526316 39.1105263,0.310526316 L41.1842105,0.310526316 C41.6085978,0.310526316 41.9526316,0.65456014 41.9526316,1.07894737 L41.9526316,4.95789474 C41.9526316,5.38228197 42.2966654,5.72631579 42.7210526,5.72631579 L46.6,5.72631579 C46.8037979,5.72631579 46.9992488,5.8072742 47.1433557,5.9513811 C47.2874626,6.09548801 47.3684211,6.29093891 47.3684211,6.49473684 L47.3684211,8.56842105 C47.3684211,8.99280828 47.0243872,9.33684211 46.6,9.33684211 L42.7210526,9.33684211 C42.2966654,9.33684211 41.9526316,9.68087593 41.9526316,10.1052632 L41.9526316,13.9842105 C41.9440364,14.402419 41.6025073,14.7369304 41.1842105,14.7368421 L39.1105263,14.7368421 C38.6861391,14.7368421 38.3421053,14.3928083 38.3421053,13.9684211 L38.3421053,10.1052632 C38.3421053,9.68087593 37.9980714,9.33684211 37.5736842,9.33684211 L33.6842105,9.33684211 C33.2598233,9.33684211 32.9157895,8.99280828 32.9157895,8.56842105 L32.9157895,6.49473684 C32.9186822,6.07240644 33.2618702,5.73156904 33.6842105,5.73157895 L37.5736842,5.73157895 Z M30.0684211,11.4894737 C30.0684211,11.9138609 30.4124549,12.2578947 30.8368421,12.2578947 L34.7368421,12.2578947 C35.1612293,12.2578947 35.5052632,12.6019286 35.5052632,13.0263158 L35.5052632,16.9052632 C35.5052632,17.3296504 35.849297,17.6736842 36.2736842,17.6736842 L40.2526316,17.6736842 L40.2526316,34.8684211 C40.2526316,36.1456478 39.7452552,37.3705627 38.8421195,38.2736984 C37.9389838,39.1768342 36.7140689,39.6842105 35.4368421,39.6842105 L4.81578947,39.6842105 C3.53856269,39.6842105 2.3136478,39.1768342 1.41051208,38.2736984 C0.507376363,37.3705627 -2.33731163e-15,36.1456478 0,34.8684211 L0,12.3315789 C-9.34924652e-16,9.67189186 2.15610239,7.51578947 4.81578947,7.51578947 L30.0789474,7.51578947 L30.0684211,11.4894737 Z M22.2210526,20.1 C22.2210667,21.5511117 23.0960499,22.8590327 24.437317,23.4128625 C25.7785842,23.9666923 27.321448,23.6571374 28.3452713,22.6287839 C29.3690946,21.6004304 29.6718348,20.0562149 29.1120887,18.717406 C28.5523426,17.3785971 27.2405713,16.5093969 25.7894737,16.5157895 C23.8161378,16.5244827 22.2210335,18.126645 22.2210526,20.1 Z M36.6789474,28.6631579 L35.1,27.2684211 C34.7051163,26.9130171 34.1161594,26.8801756 33.6842105,27.1894737 L25.7894737,31.5789474 L12.0052632,19.4105263 C11.5264539,19.023088 10.8419672,19.023088 10.3631579,19.4105263 L3.41052632,24.2105263 L3.41052632,34.8 C3.41052632,35.5528513 4.02083289,36.1631579 4.77368421,36.1631579 L35.3,36.1631579 C36.0557581,36.1631579 36.6684211,35.5504949 36.6684211,34.7947368 L36.6789474,28.6631579 Z"
                              id="Shape"></path>
                    </g>
                </g>
            </g>
        </g>
    </g>
</svg>