<?xml version="1.0" encoding="UTF-8"?>
<svg width="32px" height="32px" viewBox="0 0 32 32" version="1.1" xmlns="http://www.w3.org/2000/svg">
    <!-- Generator: Sketch 50.2 (55047) - http://www.bohemiancoding.com/sketch -->
    <title>Shape</title>
    <desc>Created with Sketch.</desc>
    <defs></defs>
    <g id="Page-1" stroke="none" stroke-width="1" fill="none" fill-rule="evenodd">
        <g id="📈---Report---Missing-person" transform="translate(-20.000000, -1895.000000)" fill="#8E8EA3"
           fill-rule="nonzero">
            <g id="Group-16" transform="translate(0.000000, 1875.000000)">
                <path d="M39.397721,42.5444898 C42.0830397,40.3559187 43.4643387,38.2963867 44.2766319,35.7206983 C44.8610937,35.5243098 45.4043398,34.9838171 45.6739593,34.2356166 C46.0408937,33.2236784 45.782723,32.1902336 45.1095329,31.764631 C45.1936817,31.1482995 45.2715336,30.5048018 45.3442336,29.8228188 C46.0019678,23.6244141 43.3864868,20 37.3815853,20 C36.9402336,20 36.479419,20.0198086 36.0008587,20.0588599 C34.1638969,20.2111034 32.9617717,21.2224757 32.9617717,21.2224757 C32.4998122,21.1223006 32.06304,21.0747599 31.6514553,21.0747599 C27.7382516,21.0741939 26.115955,25.3658761 26.6540491,29.8239508 C26.7359081,30.5002741 26.8194844,31.140942 26.9099301,31.7550096 C26.2212841,32.1687271 25.9550992,33.2140571 26.3243234,34.2356166 C26.6025295,35.0019278 27.1640937,35.5486461 27.7634389,35.7331494 C28.5705801,38.3031782 29.9221123,40.3644081 32.6011341,42.5444898 C25.8056922,44.224262 20,46.7450523 20,49.2641446 L20,49.5448613 C20,50.9009038 27.1646661,52 36.0002862,52 C44.8353339,52 51.9982827,50.9020357 51.9982827,49.5448613 L51.9982827,49.2641446 L52,49.2641446 C52,46.7439203 46.1943078,44.2236961 39.397721,42.5444898 Z"
                      id="Shape"></path>
            </g>
        </g>
    </g>
</svg>