<?xml version="1.0" encoding="UTF-8"?>
<svg width="32px" height="32px" viewBox="0 0 32 32" version="1.1" xmlns="http://www.w3.org/2000/svg">
    <!-- Generator: Sketch 50.2 (55047) - http://www.bohemiancoding.com/sketch -->
    <title>noun_547554_cc</title>
    <desc>Created with Sketch.</desc>
    <defs></defs>
    <g id="Page-1" stroke="none" stroke-width="1" fill="none" fill-rule="evenodd">
        <g id="📈---Report---Missing-person" transform="translate(-20.000000, -1718.000000)" fill="#8E8EA3"
           fill-rule="nonzero">
            <g id="Group-16" transform="translate(0.000000, 1698.000000)">
                <g id="noun_547554_cc" transform="translate(20.000000, 20.000000)">
                    <path d="M1.07755102,13.6163265 C0.52244898,12.1142857 0.130612245,10.5795918 0.228571429,8.94693878 C0.293877551,7.93469388 0.685714286,7.08571429 1.43673469,6.36734694 C2.22040816,5.61632653 3.00408163,4.8 3.7877551,4.04897959 C4.8,3.03673469 6.10612245,3.03673469 7.11836735,4.04897959 C7.73877551,4.66938776 8.39183673,5.32244898 9.0122449,5.94285714 C9.63265306,6.56326531 10.2530612,7.15102041 10.8408163,7.77142857 C11.9183673,8.84897959 11.9183673,10.122449 10.8408163,11.2 C10.0897959,11.9836735 9.30612245,12.7346939 8.52244898,13.4857143 C8.32653061,13.6816327 8.29387755,13.844898 8.39183673,14.1061224 C8.91428571,15.3469388 9.63265306,16.4244898 10.4816327,17.4693878 C12.1469388,19.5265306 14.0734694,21.355102 16.3265306,22.7918367 C16.8163265,23.0857143 17.3387755,23.3142857 17.8612245,23.5755102 C18.122449,23.7061224 18.2857143,23.6734694 18.5142857,23.444898 C19.2653061,22.6612245 20.0489796,21.877551 20.8326531,21.0938776 C21.844898,20.0816327 23.1510204,20.0816327 24.1632653,21.0938776 C25.4040816,22.3346939 26.677551,23.5755102 27.9183673,24.8489796 C28.9632653,25.8938776 28.9632653,27.2 27.9183673,28.244898 C27.2,28.9632653 26.4489796,29.6489796 25.7959184,30.4 C24.8163265,31.477551 23.6081633,31.8367347 22.2040816,31.7714286 C20.1795918,31.6734694 18.2857143,30.9877551 16.4897959,30.1061224 C12.4734694,28.1469388 9.0122449,25.4367347 6.13877551,22.0081633 C3.98367347,19.4938776 2.22040816,16.7183673 1.07755102,13.6163265 Z M31.7714286,15.9020408 C31.7714286,7.24897959 24.7510204,0.228571429 16.0979592,0.228571429 L16.0979592,3.23265306 C23.0857143,3.23265306 28.8,8.91428571 28.8,15.9346939 L31.7714286,15.9346939 L31.7714286,15.9020408 Z M16.0979592,5.8122449 L16.0979592,8.81632653 C17.9918367,8.81632653 19.7877551,9.56734694 21.1265306,10.9061224 C22.4653061,12.244898 23.2163265,14.0408163 23.2163265,15.9346939 L26.2204082,15.9346939 C26.1877551,10.3510204 21.6489796,5.8122449 16.0979592,5.8122449 Z"
                          id="Shape"></path>
                </g>
            </g>
        </g>
    </g>
</svg>