<svg xmlns="http://www.w3.org/2000/svg" width="42" height="42" viewBox="0 0 42 42">
    <g fill="#37D08B" fill-rule="nonzero" stroke="#FFF" stroke-width="1.2">
        <path d="M32.12 3.214c-2.952-2.952-7.755-2.952-10.702 0l-2.704 2.7a.192.192 0 0 0-.027.031.06.06 0 0 0-.026.03.06.06 0 0 0-.031.027.192.192 0 0 0-.03.027L3.368 21.262a2.649 2.649 0 0 0-.73 1.387l-1.595 8.547c-.159.861.115 1.745.734 2.36a2.634 2.634 0 0 0 2.36.733l8.545-1.595a2.677 2.677 0 0 0 1.392-.73L29.26 16.773l.04-.036 2.819-2.819a7.533 7.533 0 0 0 2.213-5.351 7.518 7.518 0 0 0-2.213-5.352zm-21.214 24.42l-3.94.734.737-3.938 12.884-12.89 3.204 3.203-12.885 12.891zm17.462-17.469l-.826.831-3.203-3.204.826-.83a2.267 2.267 0 0 1 3.203 3.203z"/>
        <path d="M38.391 41h-1.087c-2.251 0-4.3-.884-5.82-2.324A8.278 8.278 0 0 1 25.728 41a8.44 8.44 0 0 1-5.87-2.37A8.44 8.44 0 0 1 13.99 41H3.61A2.612 2.612 0 0 1 1 38.386a2.612 2.612 0 0 1 2.609-2.615h10.38a3.268 3.268 0 0 0 3.261-3.268 2.612 2.612 0 0 1 2.609-2.614c1.44 0 2.608 1.17 2.608 2.614a3.268 3.268 0 0 0 3.261 3.268 3.105 3.105 0 0 0 3.098-3.104v-.164a2.612 2.612 0 0 1 2.609-2.614c1.44 0 2.608 1.17 2.608 2.614a3.268 3.268 0 0 0 3.261 3.268h1.087c1.44 0 2.609 1.171 2.609 2.615A2.612 2.612 0 0 1 38.391 41z"/>
    </g>
</svg>
