<?xml version="1.0" encoding="UTF-8"?>
<svg width="16px" height="16px" viewBox="0 0 16 16" version="1.1" xmlns="http://www.w3.org/2000/svg">
    <!-- Generator: Sketch 50.2 (55047) - http://www.bohemiancoding.com/sketch -->
    <title>Group</title>
    <desc>Created with Sketch.</desc>
    <defs></defs>
    <g id="Page-1" stroke="none" stroke-width="1" fill="none" fill-rule="evenodd">
        <g id="📈---Report---Missing-person" transform="translate(-32.000000, -312.000000)" fill="#0080ff"
           fill-rule="nonzero">
            <g id="Group-11" transform="translate(0.000000, 284.000000)">
                <g id="noun_1172532_cc" transform="translate(20.000000, 16.000000)">
                    <g id="Group" transform="translate(12.000000, 12.000000)">
                        <path d="M3.2632,3.46213333 L4.4408,3.46213333 C4.61786667,3.46213333 4.7632,3.31733333 4.7632,3.14026667 L4.7632,0.549866667 C4.7632,0.3728 4.61786667,0.228 4.4408,0.228 L3.2632,0.228 C3.084,0.228 2.94133333,0.3728 2.94133333,0.549866667 L2.94133333,3.14026667 C2.94133333,3.31733333 3.084,3.46213333 3.2632,3.46213333 Z"
                              id="Shape"></path>
                        <path d="M11.56,3.46213333 L12.7381333,3.46213333 C12.9157333,3.46213333 13.06,3.31733333 13.06,3.14026667 L13.06,0.549866667 C13.06,0.3728 12.9157333,0.228 12.7381333,0.228 L11.56,0.228 C11.3824,0.228 11.236,0.3728 11.236,0.549866667 L11.236,3.14026667 C11.236,3.31733333 11.3824,3.46213333 11.56,3.46213333 Z"
                              id="Shape"></path>
                        <path d="M14.124,1.46666667 L13.7104,1.46666667 L13.7104,3.14026667 C13.7104,3.67573333 13.2738667,4.11413333 12.7381333,4.11413333 L11.56,4.11413333 C11.0245333,4.11413333 10.5861333,3.67546667 10.5861333,3.14026667 L10.5861333,1.46666667 L5.41333333,1.46666667 L5.41333333,3.14026667 C5.41333333,3.67573333 4.9768,4.11413333 4.44106667,4.11413333 L3.26346667,4.11413333 C2.72693333,4.11413333 2.29013333,3.67546667 2.29013333,3.14026667 L2.29013333,1.46666667 L1.87253333,1.46666667 C0.839733333,1.46666667 0,2.30586667 0,3.3392 L0,6.816 L0,13.8957333 C0,14.9322667 0.839733333,15.7717333 1.87226667,15.7717333 L14.124,15.7717333 C15.1589333,15.7717333 16,14.9322667 16,13.8957333 L16,6.81626667 L16,3.3392 C16,2.30586667 15.1589333,1.46666667 14.124,1.46666667 Z M14.8136,13.8957333 C14.8136,14.2770667 14.5048,14.5853333 14.124,14.5853333 L1.87226667,14.5853333 C1.49466667,14.5853333 1.18693333,14.2770667 1.18693333,13.8957333 L1.18693333,6.81626667 L14.8138667,6.81626667 L14.8138667,13.8957333 L14.8136,13.8957333 Z"
                              id="Shape"></path>
                    </g>
                </g>
            </g>
        </g>
    </g>
</svg>