<svg xmlns="http://www.w3.org/2000/svg" width="34" height="34" viewBox="0 0 34 34">
    <g fill="#37D08B" fill-rule="nonzero">
        <rect width="34" height="34" opacity=".11" rx="5"/>
        <path d="M25.532 23.275l-7.058-7.045L10.227 8h-.644l-.132.334c-.347.88-.495 1.781-.429 2.605.076.939.434 1.751 1.034 2.35l6.437 6.425.85-.847 5.95 6.642c.593.59 1.612.625 2.239 0a1.58 1.58 0 0 0 0-2.234zM13.51 18.226l-5.042 5.032a1.58 1.58 0 0 0 0 2.234c.586.585 1.6.637 2.238 0l5.042-5.032-2.238-2.234zM25.235 10.991l-2.86 2.855-.746-.745 2.86-2.854-.746-.745-2.86 2.854-.746-.744 2.86-2.855-.746-.744-3.73 3.723a2.626 2.626 0 0 0-.768 1.703c-.01.163-.046.323-.108.475l2.424 2.419a1.52 1.52 0 0 1 .476-.108 2.635 2.635 0 0 0 1.706-.766l3.73-3.723-.746-.745z"/>
    </g>
</svg>
