<svg xmlns="http://www.w3.org/2000/svg" width="22" height="22" viewBox="0 0 22 22">
    <g fill="#fff" fill-rule="nonzero">
        <path d="M6.223 2.917l-1.98 3.18-.671 1.094-1.98 3.18c-1.174 1.888-.537 4.34 1.342 5.5 1.913 1.159 4.396.53 5.57-1.326l1.98-3.18.671-1.093 1.98-3.18c1.175-1.889.537-4.34-1.342-5.5a4.073 4.073 0 0 0-5.57 1.325zm1.174 10.965c-.772 1.26-2.483 1.69-3.758.895-1.275-.762-1.678-2.418-.906-3.71l1.98-3.18 4.698 2.815-2.014 3.18zM20.967 15.887C20.635 13.713 18.744 12 16.455 12c-2.29 0-4.18 1.68-4.513 3.887-.033.197-.033.428-.033.658 0 .231 0 .429.033.66.332 2.173 2.223 3.886 4.513 3.886 2.289 0 4.18-1.68 4.512-3.887.033-.197.033-.428.033-.659 0-.23 0-.428-.033-.658zm-7.963 1.284a4.026 4.026 0 0 1-.066-.658c0-.231.033-.429.066-.66h6.934c.033.198.067.429.067.66 0 .23-.034.428-.067.658h-6.934z"/>
    </g>
</svg>
