<svg xmlns="http://www.w3.org/2000/svg" width="17" height="17" viewBox="0 0 17 17">
    <g fill="#FED173" fill-rule="nonzero">
        <path d="M15.678 1.341a4.496 4.496 0 0 0-6.34 0l-3.696 3.69 4.196 4.188c.864-.718 1.96-1.168 3.168-1.168.694 0 1.354.144 1.954.4l.718-.782a4.474 4.474 0 0 0 0-6.328zM9.14 9.928L4.937 5.733 1.32 9.347a4.474 4.474 0 0 0 0 6.328c1.748 1.744 4.625 1.777 6.373.033l.733-.735a4.932 4.932 0 0 1-.4-1.95c0-1.176.427-2.243 1.114-3.095zM9.021 13.023c0 2.026 1.524 3.68 3.487 3.927V9.096c-1.963.247-3.487 1.9-3.487 3.927zM13.504 9.096v7.854c1.963-.247 3.487-1.901 3.487-3.927s-1.523-3.68-3.487-3.927z"/>
    </g>
</svg>
