<svg xmlns="http://www.w3.org/2000/svg" width="34" height="34" viewBox="0 0 34 34">
    <g fill="#FF5252" fill-rule="nonzero">
        <rect width="34" height="34" opacity=".11" rx="5"/>
        <path d="M27 19.496h-3.355c0-3.47-2.968-6.27-6.645-6.27-3.677 0-6.645 2.8-6.645 6.27H7c0-5.205 4.484-9.435 10-9.435 5.516-.03 10 4.2 10 9.435zM27 20.47v2.526c0 .517-.452.943-1 .943H8c-.548 0-1-.426-1-.943V20.47h7.42c.193 1.156 1.29 2.07 2.58 2.07s2.387-.914 2.58-2.07H27z"/>
        <path d="M19.774 15.235l-1.322 4.322c.064.152.096.334.096.517 0 .122-.032.274-.064.396-.194.608-.774 1.065-1.516 1.065-.71 0-1.323-.457-1.484-1.065a1.688 1.688 0 0 1-.065-.396c0-.609.42-1.157.968-1.37l2.548-3.834c.13-.213.42-.274.646-.153.16.122.258.335.193.518z"/>
    </g>
</svg>
