<svg xmlns="http://www.w3.org/2000/svg" width="18" height="18" viewBox="0 0 18 18">
    <g fill="none" fill-rule="evenodd">
        <g fill="#A4ADBA" fill-rule="nonzero">
            <path d="M17.003 13.892H14.56a.692.692 0 0 0-.692.693v2.441a.23.23 0 0 0 .395.164l2.903-2.905a.23.23 0 0 0-.162-.393z"/>
            <path d="M16.867 0H1.098a.923.923 0 0 0-.923.923v15.97c0 .51.414.922.923.922h10.923a.462.462 0 0 0 .461-.461v-2.77c0-1.146.93-2.076 2.077-2.076h2.77a.462.462 0 0 0 .461-.462V.923A.923.923 0 0 0 16.867 0zm-6.713 11.656H3.385a.692.692 0 1 1 0-1.384h6.769a.692.692 0 0 1 0 1.384zm4.615-3.461H3.385a.692.692 0 1 1 0-1.385H14.77a.692.692 0 0 1 0 1.385zm0-3.462H3.385a.692.692 0 1 1 0-1.385H14.77a.692.692 0 0 1 0 1.385z"/>
        </g>
    </g>
</svg>
