<?xml version="1.0" encoding="UTF-8"?>
<svg width="75px" height="76px" viewBox="0 0 75 76" version="1.1" xmlns="http://www.w3.org/2000/svg">
    <!-- Generator: Sketch 50.2 (55047) - http://www.bohemiancoding.com/sketch -->
    <title>analysis</title>
    <desc>Created with Sketch.</desc>
    <defs></defs>
    <g id="Incident-Reports-v2---Mobile" stroke="none" stroke-width="1" fill="none" fill-rule="evenodd">
        <g id="No-reports-v2" transform="translate(-150.000000, -368.000000)" fill-rule="nonzero">
            <g id="Group-4" transform="translate(77.000000, 368.000000)">
                <g id="analysis" transform="translate(73.000000, 0.000000)">
                    <path d="M74.6157738,5.15985185 C74.4241071,4.93333333 74.1498512,4.79185185 73.8534226,4.76666667 L57.271875,3.35674074 L56.9712798,0.977777778 C56.8938988,0.365777778 56.3315476,-0.068 55.7183036,0.00888888889 L40.3363095,1.93422222 C40.275744,1.91851852 40.2136905,1.90666667 40.1491071,1.90118519 L19.0068452,0.103259259 C18.3980655,0.0499259259 17.8453869,0.516 17.7936012,1.12088889 L17.4784226,4.79496296 L1.10208333,6.84474074 C0.496130952,6.92059259 0.052827381,7.48844444 0.128869048,8.09214815 L8.48809524,74.2859259 C8.52604167,74.5878519 8.4610119,74.8779259 8.58497024,75.1699259 C8.75877976,75.578963 9.17247024,75.852 9.61875,75.852 L64.6647321,75.852 C65.2845238,75.852 65.7866071,75.3521481 65.7866071,74.7351111 L65.7866071,73.2804444 L67.959375,73.4651852 C68.5681548,73.5177778 69.1208333,73.0527407 69.172619,72.4475556 L74.8754464,5.97481481 C74.9008929,5.67955556 74.8075893,5.38651852 74.6157738,5.15985185 Z M8.496875,56.4478519 L2.4952381,8.92162963 L8.496875,8.17051852 L8.496875,56.4478519 Z M19.9337798,2.424 L29.7522321,3.25881481 L19.7549107,4.51022222 L19.9337798,2.424 Z M54.885119,2.36459259 L55.4583333,6.90340741 L18.6203869,6.90340741 L54.885119,2.36459259 Z M67.0325893,71.1444444 L65.7866071,71.0385185 L65.7866071,38.3992593 C65.7866071,37.7823704 65.2845238,37.2823704 64.6647321,37.2823704 C64.0449405,37.2823704 63.5428571,37.7822222 63.5428571,38.3992593 L63.5428571,73.6180741 L10.740625,73.6180741 L10.740625,9.13718519 L63.543006,9.13718519 L63.543006,33.1872593 C63.543006,33.8042963 64.0450893,34.3041481 64.664881,34.3041481 C65.2846726,34.3041481 65.786756,33.8042963 65.786756,33.1872593 L65.786756,8.0202963 C65.786756,7.40340741 65.2846726,6.90340741 64.664881,6.90340741 L57.7197917,6.90340741 L57.5580357,5.62296296 L72.544494,6.89733333 L67.0325893,71.1444444 Z"
                          id="Shape" fill="#A4ADBA"></path>
                    <path d="M29.235625,53.8491992 L19.706875,53.8491992 C19.023445,53.8491992 18.469375,54.4066797 18.469375,55.0943164 L18.469375,64.7633984 C18.469375,65.4510352 19.023445,66.0085156 19.706875,66.0085156 L29.235625,66.0085156 C29.919055,66.0085156 30.473125,65.4510352 30.473125,64.7633984 L30.473125,55.0943164 C30.473125,54.4066797 29.919055,53.8491992 29.235625,53.8491992 Z M27.998125,63.5182813 L20.944375,63.5182813 L20.944375,56.3394336 L27.998125,56.3394336 L27.998125,63.5182813 Z"
                          id="Shape" stroke="#F6F6FA" stroke-width="0.400000006" fill="#37D08B"></path>
                    <path d="M29.235625,40.3929687 C28.552195,40.3929687 27.998125,40.9504492 27.998125,41.6380859 L27.998125,45.7916309 L20.944375,45.7916309 L20.944375,38.6127832 L23.240515,38.6127832 C23.923945,38.6127832 24.478015,38.0553027 24.478015,37.367666 C24.478015,36.6800293 23.923945,36.1225488 23.240515,36.1225488 L19.706875,36.1225488 C19.023445,36.1225488 18.469375,36.6800293 18.469375,37.367666 L18.469375,47.036748 C18.469375,47.7243848 19.023445,48.2818652 19.706875,48.2818652 L29.235625,48.2818652 C29.919055,48.2818652 30.473125,47.7243848 30.473125,47.036748 L30.473125,41.6380859 C30.473125,40.9504492 29.919055,40.3929687 29.235625,40.3929687 Z"
                          id="Shape" stroke="#F6F6FA" stroke-width="0.400000006" fill="#FED173"></path>
                    <path d="M53.6784226,38 L38.121875,38 C37.502381,38 37,38.4998519 37,39.1168889 C37,39.7339259 37.5022321,40.2337778 38.121875,40.2337778 L53.6784226,40.2337778 C54.2980655,40.2337778 54.8002976,39.7339259 54.8002976,39.1168889 C54.8002976,38.4998519 54.2979167,38 53.6784226,38 Z"
                          id="Shape" fill="#A4ADBA"></path>
                    <path d="M42.9084821,44 L38.121875,44 C37.502381,44 37,44.4998519 37,45.1168889 C37,45.7339259 37.5022321,46.2337778 38.121875,46.2337778 L42.9084821,46.2337778 C43.528125,46.2337778 44.0303571,45.7339259 44.0303571,45.1168889 C44.0303571,44.4998519 43.528125,44 42.9084821,44 Z"
                          id="Shape" fill="#A4ADBA"></path>
                    <path d="M53.6784226,56 L38.121875,56 C37.502381,56 37,56.4998519 37,57.1168889 C37,57.7339259 37.5022321,58.2337778 38.121875,58.2337778 L53.6784226,58.2337778 C54.2980655,58.2337778 54.8002976,57.7339259 54.8002976,57.1168889 C54.8002976,56.4998519 54.2979167,56 53.6784226,56 Z"
                          id="Shape" fill="#A4ADBA"></path>
                    <path d="M42.9084821,62 L38.121875,62 C37.502381,62 37,62.4998519 37,63.1168889 C37,63.7339259 37.5022321,64.2337778 38.121875,64.2337778 L42.9084821,64.2337778 C43.528125,64.2337778 44.0303571,63.7339259 44.0303571,63.1168889 C44.0303571,62.4998519 43.528125,62 42.9084821,62 Z"
                          id="Shape" fill="#A4ADBA"></path>
                    <path d="M53.6784226,20 L38.121875,20 C37.502381,20 37,20.4998519 37,21.1168889 C37,21.7339259 37.5022321,22.2337778 38.121875,22.2337778 L53.6784226,22.2337778 C54.2980655,22.2337778 54.8002976,21.7339259 54.8002976,21.1168889 C54.8002976,20.4998519 54.2979167,20 53.6784226,20 Z"
                          id="Shape" fill="#A4ADBA"></path>
                    <path d="M42.9084821,26 L38.121875,26 C37.502381,26 37,26.4998519 37,27.1168889 C37,27.7339259 37.5022321,28.2337778 38.121875,28.2337778 L42.9084821,28.2337778 C43.528125,28.2337778 44.0303571,27.7339259 44.0303571,27.1168889 C44.0303571,26.4998519 43.528125,26 42.9084821,26 Z"
                          id="Shape" fill="#A4ADBA"></path>
                    <path d="M53.7119048,26 L48.121875,26 C47.502381,26 47,26.4998519 47,27.1168889 C47,27.7339259 47.5022321,28.2337778 48.121875,28.2337778 L53.7119048,28.2337778 C54.3315476,28.2337778 54.8337798,27.7339259 54.8337798,27.1168889 C54.833631,26.4998519 54.3315476,26 53.7119048,26 Z"
                          id="Shape" fill="#A4ADBA"></path>
                    <path d="M22.33318,39.4750684 C21.720865,39.7805371 21.47056,40.5276074 21.77416,41.1436914 L23.362285,44.3667188 C23.571175,44.7905566 24.000835,45.0586719 24.471085,45.0586719 C24.941335,45.0586719 25.370995,44.7905566 25.579885,44.3667188 L30.34426,34.6976367 C30.64786,34.0815527 30.397555,33.3344824 29.78524,33.0290137 C29.172925,32.7235449 28.43026,32.9753906 28.126825,33.5914746 L24.47125,41.0105469 L23.991925,40.0375293 C23.68816,39.4214453 22.945825,39.1695996 22.33318,39.4750684 Z"
                          id="Shape" stroke="#F6F6FA" stroke-width="0.400000006" fill="#FED173"></path>
                    <path d="M29.235625,17.8491992 L19.706875,17.8491992 C19.023445,17.8491992 18.469375,18.4066797 18.469375,19.0943164 L18.469375,28.7633984 C18.469375,29.4510352 19.023445,30.0085156 19.706875,30.0085156 L29.235625,30.0085156 C29.919055,30.0085156 30.473125,29.4510352 30.473125,28.7633984 L30.473125,19.0943164 C30.473125,18.4066797 29.919055,17.8491992 29.235625,17.8491992 Z M27.998125,27.5182813 L20.944375,27.5182813 L20.944375,20.3394336 L27.998125,20.3394336 L27.998125,27.5182813 Z"
                          id="Shape" stroke="#F6F6FA" stroke-width="0.400000006" fill="#37D08B"></path>
                </g>
            </g>
        </g>
    </g>
</svg>