<svg xmlns="http://www.w3.org/2000/svg" width="34" height="34" viewBox="0 0 34 34">
    <g fill="#0080FF" fill-rule="nonzero">
        <rect width="34" height="34" opacity=".11" rx="5"/>
        <path d="M23.9 10.017c-.2-.598-.8-.997-1.4-.997h-11c-.7 0-1.2.399-1.4.997L8 16.002v7.98c0 .6.4.998 1 .998h1c.6 0 1-.399 1-.997v-.998h12v.998c0 .598.4.997 1 .997h1c.6 0 1-.399 1-.997v-7.98l-2.1-5.986zm-12.4 9.976c-.8 0-1.5-.699-1.5-1.497 0-.798.7-1.496 1.5-1.496s1.5.698 1.5 1.496-.7 1.497-1.5 1.497zm11 0c-.8 0-1.5-.699-1.5-1.497 0-.798.7-1.496 1.5-1.496s1.5.698 1.5 1.496-.7 1.497-1.5 1.497zM10 15.005l1.5-4.49h11l1.5 4.49H10z"/>
    </g>
</svg>
