<svg xmlns="http://www.w3.org/2000/svg" width="48" height="48" viewBox="0 0 48 48">
    <g fill="none" fill-rule="evenodd">
        <path fill="#FFF" d="M-307-170H68V868h-375z"/>
        <g>
            <circle cx="24" cy="24" r="24" fill="#37D08B"/>
            <path stroke="#FFF" stroke-linecap="round" stroke-linejoin="round" stroke-width="2"
                  d="M32.333 28.1v2.5a1.667 1.667 0 0 1-1.816 1.667 16.492 16.492 0 0 1-7.192-2.559 16.25 16.25 0 0 1-5-5 16.492 16.492 0 0 1-2.558-7.225 1.667 1.667 0 0 1 1.658-1.816h2.5a1.667 1.667 0 0 1 1.667 1.433c.105.8.3 1.586.583 2.342.229.609.083 1.295-.375 1.758l-1.058 1.058a13.333 13.333 0 0 0 5 5L26.8 26.2a1.667 1.667 0 0 1 1.758-.375 10.7 10.7 0 0 0 2.342.583 1.667 1.667 0 0 1 1.433 1.692z"/>
        </g>
    </g>
</svg>
