<svg xmlns="http://www.w3.org/2000/svg" width="14" height="16" viewBox="0 0 14 16">
    <g fill="none" fill-rule="evenodd">
        <path fill="#FFF" d="M-20-706h375V332H-20z"/>
        <path d="M-2 0h18v18H-2z"/>
        <path fill="#6C798F" fill-rule="nonzero"
              d="M12.25 2.25h-.75V.75H10v1.5H4V.75H2.5v1.5h-.75c-.833 0-1.493.675-1.493 1.5L.25 14.25a1.5 1.5 0 0 0 1.5 1.5h10.5c.825 0 1.5-.675 1.5-1.5V3.75c0-.825-.675-1.5-1.5-1.5zm0 12H1.75V6h10.5v8.25zm-9-6.75H7v3.75H3.25V7.5z"/>
    </g>
</svg>
