<svg xmlns="http://www.w3.org/2000/svg" width="75" height="76" viewBox="0 0 75 76">
    <g fill="none" fill-rule="evenodd">
        <path fill="#F4F5F7" d="M-150-306h375v812h-375z"/>
        <g fill-rule="nonzero">
            <path fill="#A4ADBA"
                  d="M74.616 5.16a1.123 1.123 0 0 0-.763-.393l-16.581-1.41-.3-2.38A1.122 1.122 0 0 0 55.717.01L40.336 1.934a1.12 1.12 0 0 0-.187-.033L19.007.103a1.131 1.131 0 0 0-1.213 1.018l-.316 3.674-16.376 2.05A1.13 1.13 0 0 0 .13 8.092l8.36 66.194c.037.302-.028.592.096.884.174.409.587.682 1.034.682h55.046c.62 0 1.122-.5 1.122-1.117V73.28l2.172.185a1.131 1.131 0 0 0 1.214-1.017l5.702-66.473a1.113 1.113 0 0 0-.26-.815zM8.496 56.448l-6-47.526 6-.751v48.277zM19.935 2.424l9.818.835-9.997 1.251.179-2.086zm34.951-.06l.573 4.54H18.62l36.265-4.54zm12.148 68.78l-1.246-.105v-32.64a1.12 1.12 0 0 0-1.122-1.117c-.62 0-1.122.5-1.122 1.117v35.22H10.74V9.136h52.802v24.05a1.12 1.12 0 0 0 1.122 1.117c.62 0 1.122-.5 1.122-1.117V8.02a1.12 1.12 0 0 0-1.122-1.117H57.72l-.162-1.28 14.986 1.274-5.511 64.247z"/>
            <path fill="#37D08B" stroke="#F6F6FA" stroke-width=".4"
                  d="M29.236 53.85h-9.53c-.683 0-1.237.557-1.237 1.244v9.67c0 .687.554 1.245 1.238 1.245h9.529c.683 0 1.237-.558 1.237-1.246v-9.669c0-.687-.554-1.245-1.237-1.245zm-1.238 9.668h-7.054V56.34h7.054v7.18z"/>
            <path fill="#FED173" stroke="#F6F6FA" stroke-width=".4"
                  d="M29.236 40.393c-.684 0-1.238.557-1.238 1.245v4.154h-7.054v-7.18h2.297c.683 0 1.237-.557 1.237-1.244 0-.688-.554-1.245-1.237-1.245h-3.534c-.684 0-1.238.557-1.238 1.245v9.669c0 .687.554 1.245 1.238 1.245h9.529c.683 0 1.237-.558 1.237-1.245v-5.399c0-.688-.554-1.245-1.237-1.245z"/>
            <path fill="#A4ADBA"
                  d="M53.678 38H38.122c-.62 0-1.122.5-1.122 1.117a1.12 1.12 0 0 0 1.122 1.117h15.556c.62 0 1.122-.5 1.122-1.117A1.12 1.12 0 0 0 53.678 38zM42.908 44h-4.786c-.62 0-1.122.5-1.122 1.117a1.12 1.12 0 0 0 1.122 1.117h4.786c.62 0 1.122-.5 1.122-1.117A1.12 1.12 0 0 0 42.908 44zM53.678 56H38.122c-.62 0-1.122.5-1.122 1.117a1.12 1.12 0 0 0 1.122 1.117h15.556c.62 0 1.122-.5 1.122-1.117A1.12 1.12 0 0 0 53.678 56zM42.908 62h-4.786c-.62 0-1.122.5-1.122 1.117a1.12 1.12 0 0 0 1.122 1.117h4.786c.62 0 1.122-.5 1.122-1.117A1.12 1.12 0 0 0 42.908 62zM53.678 20H38.122c-.62 0-1.122.5-1.122 1.117a1.12 1.12 0 0 0 1.122 1.117h15.556c.62 0 1.122-.5 1.122-1.117A1.12 1.12 0 0 0 53.678 20zM42.908 26h-4.786c-.62 0-1.122.5-1.122 1.117a1.12 1.12 0 0 0 1.122 1.117h4.786c.62 0 1.122-.5 1.122-1.117A1.12 1.12 0 0 0 42.908 26zM53.712 26h-5.59c-.62 0-1.122.5-1.122 1.117a1.12 1.12 0 0 0 1.122 1.117h5.59c.62 0 1.122-.5 1.122-1.117A1.12 1.12 0 0 0 53.712 26z"/>
            <path fill="#FED173" stroke="#F6F6FA" stroke-width=".4"
                  d="M22.333 39.475a1.249 1.249 0 0 0-.559 1.669l1.588 3.223a1.237 1.237 0 0 0 2.218 0l4.764-9.67a1.249 1.249 0 0 0-.559-1.668 1.234 1.234 0 0 0-1.658.562l-3.656 7.42-.48-.973a1.234 1.234 0 0 0-1.658-.563z"/>
            <path fill="#37D08B" stroke="#F6F6FA" stroke-width=".4"
                  d="M29.236 17.85h-9.53c-.683 0-1.237.557-1.237 1.244v9.67c0 .687.554 1.245 1.238 1.245h9.529c.683 0 1.237-.558 1.237-1.246v-9.669c0-.687-.554-1.245-1.237-1.245zm-1.238 9.668h-7.054V20.34h7.054v7.18z"/>
        </g>
    </g>
</svg>
