<svg xmlns="http://www.w3.org/2000/svg" width="53" height="76" viewBox="0 0 53 76">
    <g fill="none" fill-rule="evenodd">
        <path fill="#F4F5F7" d="M-161-346h375v812h-375z"/>
        <g fill-rule="nonzero">
            <path fill="#A4ADBA"
                  d="M46.27 76H6.73a5.798 5.798 0 0 1-5.79-5.79V5.79A5.798 5.798 0 0 1 6.73 0h39.54a5.798 5.798 0 0 1 5.79 5.79v64.424c0 3.188-2.599 5.786-5.79 5.786zM6.73 2.375A3.419 3.419 0 0 0 3.315 5.79v64.424a3.419 3.419 0 0 0 3.416 3.416h39.538a3.419 3.419 0 0 0 3.416-3.415V5.79a3.419 3.419 0 0 0-3.416-3.415H6.732z"/>
            <path fill="#A4ADBA"
                  d="M.94 9.947h51.12v2.375H.94zM.94 61.156h51.12v2.375H.94zM26.5 72.47a4.016 4.016 0 0 1-4.009-4.008c0-2.209 1.8-4.01 4.009-4.01 2.209 0 4.009 1.801 4.009 4.01 0 2.209-1.8 4.009-4.009 4.009zm0-5.642c-.898 0-1.634.731-1.634 1.634 0 .902.736 1.634 1.634 1.634.898 0 1.634-.732 1.634-1.634 0-.903-.736-1.634-1.634-1.634zM32.684 6.232c0 .655-.531 1.188-1.187 1.188h-6.631a1.188 1.188 0 0 1 0-2.375h6.631c.65 0 1.188.532 1.188 1.187z"/>
            <circle cx="21.503" cy="6.232" r="1.188" fill="#A4ADBA"/>
            <path fill="#37D08B"
                  d="M26.5 54.008c-9.524 0-17.271-7.748-17.271-17.272 0-9.523 7.747-17.266 17.271-17.266 9.524 0 17.271 7.748 17.271 17.271 0 9.524-7.747 17.267-17.271 17.267zm0-32.163c-8.213 0-14.896 6.684-14.896 14.896 0 8.213 6.683 14.896 14.896 14.896 8.213 0 14.896-6.678 14.896-14.896 0-8.217-6.683-14.896-14.896-14.896z"/>
            <path fill="#FED173"
                  d="M31.488 45.6c-.19 0-.38-.047-.552-.133L26.5 43.13l-4.436 2.332a1.198 1.198 0 0 1-1.25-.09 1.185 1.185 0 0 1-.475-1.159l.846-4.94-3.582-3.496a1.193 1.193 0 0 1-.299-1.216c.138-.432.513-.746.96-.807l4.954-.718 2.218-4.493a1.184 1.184 0 0 1 2.128 0l2.213 4.489 4.96.717a1.186 1.186 0 0 1 .655 2.023l-3.586 3.501.85 4.94c.08.447-.105.893-.47 1.159a1.213 1.213 0 0 1-.698.228zm-10.503-9.842l2.309 2.252c.28.275.408.665.342 1.05l-.546 3.182 2.859-1.501c.342-.176.76-.176 1.102 0l2.86 1.5-.547-3.182a1.179 1.179 0 0 1 .337-1.054l2.314-2.252-3.197-.46a1.187 1.187 0 0 1-.893-.651L26.5 31.749l-1.43 2.893a1.195 1.195 0 0 1-.893.65l-3.192.466z"/>
        </g>
    </g>
</svg>
