<?xml version="1.0" encoding="UTF-8"?>
<svg width="48px" height="53px" viewBox="0 0 48 53" version="1.1" xmlns="http://www.w3.org/2000/svg">
    <!-- Generator: Sketch 51.1 (57501) - http://www.bohemiancoding.com/sketch -->
    <title>Group 7</title>
    <desc>Created with Sketch.</desc>
    <defs></defs>
    <g id="🔹-Last-mile" stroke="none" stroke-width="1" fill="none" fill-rule="evenodd">
        <g id="Appointment-can't-be-rescheduled" transform="translate(-14.000000, -349.000000)">
            <g id="Map" transform="translate(0.000000, 242.000000)">
                <g id="Group-7" transform="translate(14.000000, 107.000000)">
                    <path d="M19.5316274,47.5847901 C8.41207406,45.4910018 0,35.7278735 0,24 C0,10.745166 10.745166,0 24,0 C37.254834,0 48,10.745166 48,24 C48,35.7278735 39.5879259,45.4910018 28.4683726,47.5847901 L24,52.5 L19.5316274,47.5847901 Z"
                          id="Combined-Shape" fill="#002748"></path>
                    <g id="noun_Car_1777731" transform="translate(12.000000, 14.000000)" fill="#FFFFFF">
                        <path d="M2.4,6.68 L4.04,2.24 C4.64,1.08 5.56,0.36 6.64,0 L16.92,0 C18,0.36 18.88,1.08 19.52,2.24 L21.16,6.68 L23.28,6.68 C23.44,6.68 23.56,6.8 23.56,6.96 L23.56,7.84 C23.56,8 23.44,8.16 23.28,8.16 L22.04,8.16 C22.4,8.6 22.76,9.12 23.12,9.8 C23.12,12.48 23.16,15.16 23.16,17.88 C23.16,18.56 22.6,19.16 21.88,19.16 L21,19.16 C20.28,19.16 19.72,18.56 19.72,17.88 L19.72,16.24 L3.84,16.24 L3.84,17.88 C3.84,18.56 3.28,19.16 2.56,19.16 L1.68,19.16 C0.96,19.16 0.4,18.56 0.4,17.88 C0.4,15.16 0.44,12.48 0.44,9.8 C0.8,9.12 1.16,8.6 1.52,8.16 L0.28,8.16 C0.12,8.16 0,8 0,7.84 L0,6.96 C0,6.8 0.12,6.68 0.28,6.68 L2.4,6.68 Z M6.84,1.76 C6.16,1.88 5.72,2.32 5.48,2.88 C5,4.2 4.48,5.72 4.04,7.04 L19.52,7.04 C19.08,5.72 18.52,4.2 18.08,2.88 C17.8,2.32 17.4,1.88 16.72,1.76 L6.84,1.76 Z M19.08,9.92 C18.28,9.92 17.64,10.56 17.64,11.36 C17.64,12.16 18.28,12.8 19.08,12.8 C19.84,12.8 20.48,12.16 20.48,11.36 C20.48,10.56 19.84,9.92 19.08,9.92 Z M4.48,9.92 C5.28,9.92 5.92,10.56 5.92,11.36 C5.92,12.16 5.28,12.8 4.48,12.8 C3.72,12.8 3.08,12.16 3.08,11.36 C3.08,10.56 3.72,9.92 4.48,9.92 Z"
                              id="Shape"></path>
                    </g>
                </g>
            </g>
        </g>
    </g>
</svg>