<svg xmlns="http://www.w3.org/2000/svg" width="14" height="19" viewBox="0 0 14 19">
    <path fill="#0080FF" fill-rule="nonzero"
          d="M13.53 4.717L4.656.174C3.442-.462 1.046.767.357 1.848c-.307.483-.284.833-.284 1.03l.11 10.258c.007.218.283.512.52.656.492.3 7.945 4.923 8.157 5.054.113.07.247.102.38.102a.744.744 0 0 0 .328-.075.621.621 0 0 0 .364-.552V7.546a.619.619 0 0 0-.347-.544L1.521 2.53c.092-.176.45-.548 1.11-.891.695-.362 1.215-.225 1.335-.18 0 0 7.739 4.115 7.975 4.237.236.123.24.14.24.35v10.225c0 .51.522.719.905.719.382 0 .79-.372.79-.72V5.26a.621.621 0 0 0-.347-.543z"/>
</svg>
