<svg xmlns="http://www.w3.org/2000/svg" width="12" height="12" viewBox="0 0 12 12">
    <path fill="#0080FF" fill-rule="nonzero"
          d="M10.875 1.5h-.75V.937a.938.938 0 0 0-1.875 0V1.5h-4.5V.937a.938.938 0 0 0-1.875 0V1.5h-.75C.504 1.5 0 2.004 0 2.625v8.25C0 11.496.504 12 1.125 12h9.75c.621 0 1.125-.504 1.125-1.125v-8.25c0-.621-.504-1.125-1.125-1.125zm-.375 9h-9V4.125h9V10.5zM2.625 6.375v-.75c0-.207.168-.375.375-.375h.75c.207 0 .375.168.375.375v.75a.375.375 0 0 1-.375.375H3a.375.375 0 0 1-.375-.375zm2.625 0v-.75c0-.207.168-.375.375-.375h.75c.207 0 .375.168.375.375v.75a.375.375 0 0 1-.375.375h-.75a.375.375 0 0 1-.375-.375zm2.625 0v-.75c0-.207.168-.375.375-.375H9c.207 0 .375.168.375.375v.75A.375.375 0 0 1 9 6.75h-.75a.375.375 0 0 1-.375-.375zM2.625 9v-.75c0-.207.168-.375.375-.375h.75c.207 0 .375.168.375.375V9a.375.375 0 0 1-.375.375H3A.375.375 0 0 1 2.625 9zM5.25 9v-.75c0-.207.168-.375.375-.375h.75c.207 0 .375.168.375.375V9a.375.375 0 0 1-.375.375h-.75A.375.375 0 0 1 5.25 9z"/>
</svg>
